<svg width="525" height="71.402" viewBox="0 0 525 71.402" xmlns="http://www.w3.org/2000/svg">
  <g id="svgGroup" stroke-linecap="round" fill-rule="evenodd" font-size="12pt" stroke="#000000" stroke-width="0.5mm" fill="#FFFFFF" transform="scale(1)" style="stroke:#000000;stroke-width:0.4mm;fill:#FFFFFF">
<path d="M 0 55.902 L 0 54.502 Q 0.1 43.002 1.9 27.902 Q 3.45 14.897 5 9.755 A 17.725 17.725 0 0 1 5.5 8.302 Q 6.596 5.418 8.423 4.198 A 5.411 5.411 0 0 1 11.5 3.302 Q 16.2 3.302 18.6 9.602 A 3147.581 3147.581 0 0 0 20.624 15.066 Q 24.36 25.122 25.689 28.433 A 69.357 69.357 0 0 0 25.9 28.952 A 28.904 28.904 0 0 0 26.42 30.146 Q 27.507 32.483 28.228 32.596 A 0.467 0.467 0 0 0 28.3 32.602 A 0.792 0.792 0 0 0 28.607 32.534 Q 28.846 32.434 29.114 32.184 A 3.269 3.269 0 0 0 29.2 32.102 A 3.449 3.449 0 0 0 29.781 31.491 Q 31.109 29.804 33.9 24.302 A 460.726 460.726 0 0 1 37.508 17.649 Q 42.615 8.427 45.554 4.4 A 33.265 33.265 0 0 1 46 3.802 Q 47.4 2.202 48.9 1.202 Q 50.7 0.002 52.5 0.002 Q 56.629 0.002 58.4 4.716 A 14.449 14.449 0 0 1 58.7 5.602 A 13.755 13.755 0 0 1 59.06 7.004 Q 59.744 10.203 60.718 18.368 A 544.205 544.205 0 0 1 61.15 22.102 A 568.281 568.281 0 0 1 63.045 42.026 A 492.134 492.134 0 0 1 63.5 48.502 A 217.022 217.022 0 0 1 63.744 52.749 Q 63.822 54.413 63.861 55.901 A 107.062 107.062 0 0 1 63.9 58.702 Q 63.9 62.102 63.5 64.002 Q 62.9 67.402 61.45 69.402 Q 60.522 70.682 59.451 71.142 A 3.134 3.134 0 0 1 58.2 71.402 A 3.094 3.094 0 0 1 56.958 71.132 A 4.35 4.35 0 0 1 56.2 70.702 A 3.725 3.725 0 0 1 55.037 69.511 Q 54.368 68.457 54.05 66.752 A 23.846 23.846 0 0 1 53.821 65.176 Q 53.434 61.855 53.2 54.902 Q 53 47.002 52 35.052 A 600.049 600.049 0 0 0 51.639 30.899 Q 50.947 23.27 50.479 20.875 A 11.374 11.374 0 0 0 50.4 20.502 Q 49.73 18.49 49.243 18.405 A 0.247 0.247 0 0 0 49.2 18.402 A 0.517 0.517 0 0 0 48.914 18.583 Q 47.802 19.667 43.618 27.231 A 408.755 408.755 0 0 0 42.1 30.002 A 272.707 272.707 0 0 1 39.794 34.163 Q 36.61 39.782 34.671 42.414 A 20.071 20.071 0 0 1 33.9 43.402 A 12.08 12.08 0 0 1 32.422 44.9 Q 31.527 45.651 30.609 46.05 A 5.247 5.247 0 0 1 28.5 46.502 A 6.836 6.836 0 0 1 24.555 45.215 Q 23.558 44.527 22.62 43.472 A 14.777 14.777 0 0 1 22.1 42.852 A 22.852 22.852 0 0 1 20.429 40.399 Q 18.767 37.627 16.955 33.345 A 110.722 110.722 0 0 1 15.8 30.502 Q 13.5 24.702 13 24.702 A 0.36 0.36 0 0 0 12.865 24.731 Q 12.75 24.778 12.609 24.9 A 2.098 2.098 0 0 0 12.5 25.002 Q 11.54 25.961 9.82 46.71 A 1207.891 1207.891 0 0 0 9.3 53.202 A 220.291 220.291 0 0 1 8.989 56.806 Q 8.425 62.725 7.8 64.952 Q 7.15 67.268 5.839 67.702 A 2.021 2.021 0 0 1 5.2 67.802 Q 2.1 67.802 1.05 65.452 Q 0 63.102 0 55.902 Z M 463.5 12.702 L 465.9 12.702 Q 472.3 12.802 475.2 13.952 Q 478.1 15.102 479.5 17.902 A 14.347 14.347 0 0 1 479.79 18.514 Q 480.18 19.397 480.199 19.856 A 1.108 1.108 0 0 1 480.2 19.902 A 0.784 0.784 0 0 1 480.132 20.198 Q 479.938 20.663 479.2 21.402 A 6.332 6.332 0 0 1 478.733 21.827 Q 478.238 22.232 477.829 22.351 A 1.172 1.172 0 0 1 477.5 22.402 Q 476.727 22.402 474.929 21.842 A 31.907 31.907 0 0 1 474.8 21.802 Q 471.999 20.962 468.327 20.906 A 34.681 34.681 0 0 0 467.8 20.902 A 40.775 40.775 0 0 0 460.882 21.468 A 34.309 34.309 0 0 0 457.05 22.352 A 21.353 21.353 0 0 0 455.368 22.915 Q 452.1 24.177 452.1 25.802 Q 452.1 27.076 459.747 32.318 A 206.835 206.835 0 0 0 462.7 34.302 A 97.679 97.679 0 0 1 470.22 39.734 Q 477.289 45.421 480.116 50.537 A 13.575 13.575 0 0 1 482 57.102 A 8.059 8.059 0 0 1 481.961 57.858 Q 481.881 58.704 481.636 59.839 A 27.698 27.698 0 0 1 481.6 60.002 A 10.989 10.989 0 0 1 477.305 66.195 A 16.294 16.294 0 0 1 474.8 67.702 Q 472.118 69.042 467.236 69.099 A 37.508 37.508 0 0 1 466.8 69.102 L 464.3 69.102 A 81.55 81.55 0 0 1 456.709 68.689 Q 449.279 67.906 444.879 65.658 A 13.505 13.505 0 0 1 441.1 62.902 A 10.26 10.26 0 0 1 440.444 62.083 Q 439.803 61.185 439.649 60.45 A 2.187 2.187 0 0 1 439.6 60.002 A 1.954 1.954 0 0 1 439.806 59.156 Q 440.079 58.584 440.714 57.982 A 6.962 6.962 0 0 1 440.8 57.902 A 3.602 3.602 0 0 1 442.485 57.167 A 4.913 4.913 0 0 1 443.3 57.102 A 14.205 14.205 0 0 1 444.557 57.176 Q 447.975 57.495 457.4 59.202 A 63.747 63.747 0 0 0 460.516 59.681 Q 461.935 59.862 463.176 59.94 A 28.849 28.849 0 0 0 465 60.002 Q 470 60.002 471.6 58.402 Q 472.263 57.739 472.438 57.238 A 1.024 1.024 0 0 0 472.5 56.902 Q 472.5 56.465 472.042 55.341 A 20.571 20.571 0 0 0 471.9 55.002 Q 469.8 50.102 456.9 41.602 Q 450.64 37.481 447.394 34.46 A 23.96 23.96 0 0 1 445.9 32.952 A 14.106 14.106 0 0 1 444.072 30.44 Q 442.8 28.172 442.8 25.802 Q 442.8 24.847 442.891 24.257 A 4.696 4.696 0 0 1 442.9 24.202 A 10.04 10.04 0 0 1 444.892 19.53 A 13.659 13.659 0 0 1 446.4 17.852 A 15.73 15.73 0 0 1 450.504 15.074 A 21.791 21.791 0 0 1 454.3 13.702 Q 456.652 13.03 459.996 12.809 A 53.432 53.432 0 0 1 463.5 12.702 Z M 267.3 0.202 L 267.6 0.202 Q 268.731 0.202 270.913 0.742 A 47.298 47.298 0 0 1 272.45 1.152 A 55.858 55.858 0 0 1 274.801 1.871 Q 275.912 2.24 276.857 2.616 A 26.081 26.081 0 0 1 278 3.102 A 23.71 23.71 0 0 1 282.504 5.746 Q 285.774 8.224 287.4 11.602 Q 288.8 14.302 288.8 17.202 A 11.274 11.274 0 0 1 287.354 22.495 Q 284.687 27.525 277.1 33.102 A 128.803 128.803 0 0 0 275.975 33.978 Q 272.352 36.836 272.301 37.386 A 0.165 0.165 0 0 0 272.3 37.402 A 0.676 0.676 0 0 0 272.465 37.756 Q 273.181 38.72 277 41.402 Q 284.5 46.702 290.3 53.752 A 52.656 52.656 0 0 1 292.7 56.883 Q 294.858 59.951 295.646 62.274 A 7.629 7.629 0 0 1 296.1 64.702 A 3.992 3.992 0 0 1 295.457 66.853 A 5.693 5.693 0 0 1 294.8 67.702 A 5.011 5.011 0 0 1 293.827 68.527 A 3.524 3.524 0 0 1 291.9 69.102 A 3.342 3.342 0 0 1 290.065 68.486 Q 288.159 67.235 286.084 63.442 A 36.148 36.148 0 0 1 285.9 63.102 Q 284.995 61.368 282.471 58.497 A 79.455 79.455 0 0 0 280.65 56.502 A 76.724 76.724 0 0 0 277.196 53.049 Q 275.569 51.529 274.022 50.293 A 42.647 42.647 0 0 0 273 49.502 A 71.722 71.722 0 0 0 266.186 45.078 A 78.62 78.62 0 0 0 265.7 44.802 Q 262.623 43.066 261.289 42.7 A 2.318 2.318 0 0 0 260.7 42.602 L 260.5 42.602 Q 260.2 42.802 260.2 46.802 A 310.38 310.38 0 0 0 260.206 48.814 Q 260.224 51.609 260.295 53.666 A 106.652 106.652 0 0 0 260.3 53.802 Q 260.4 56.902 260.4 60.702 Q 260.4 63.84 259.697 65.454 A 3.735 3.735 0 0 1 259.2 66.302 A 4.442 4.442 0 0 1 258.251 67.201 A 3.372 3.372 0 0 1 256.3 67.802 Q 254.4 67.802 253.1 66.002 A 3.349 3.349 0 0 1 252.696 65.132 Q 252.003 63.055 251.65 57.402 A 227.415 227.415 0 0 1 251.469 53.992 Q 251.083 45.77 250.501 26.24 A 5833.481 5833.481 0 0 1 250.4 22.802 A 1501.073 1501.073 0 0 1 250.276 18.471 Q 250.1 11.981 250.1 9.302 A 26.632 26.632 0 0 1 250.148 7.642 Q 250.319 4.917 251.1 3.902 Q 253.2 1.602 261.9 0.802 A 252.02 252.02 0 0 0 262.706 0.72 Q 263.066 0.683 263.464 0.641 A 486.396 486.396 0 0 0 264.3 0.552 Q 265.7 0.402 266.4 0.302 A 28.631 28.631 0 0 1 266.645 0.268 Q 267.016 0.218 267.2 0.206 A 1.551 1.551 0 0 1 267.3 0.202 Z M 335.152 14.938 A 5.069 5.069 0 0 0 334 15.402 Q 332.91 16.056 332.612 17.501 A 5.957 5.957 0 0 0 332.5 18.702 A 10.429 10.429 0 0 0 332.559 19.742 Q 332.754 21.671 333.6 24.902 A 24.343 24.343 0 0 1 333.95 26.289 Q 335.013 31.055 335.1 39.202 A 245.183 245.183 0 0 1 335.092 41.296 Q 335.064 44.491 334.947 46.2 A 18.297 18.297 0 0 1 334.85 47.252 A 10.089 10.089 0 0 1 334.78 47.715 Q 334.618 48.632 334.277 49.623 A 17.81 17.81 0 0 1 333.5 51.502 A 18.936 18.936 0 0 1 332.115 54.108 A 14.452 14.452 0 0 1 328.65 57.902 A 13.106 13.106 0 0 1 327.396 58.741 A 10.117 10.117 0 0 1 322.2 60.202 A 8.91 8.91 0 0 1 321.602 60.182 Q 318.501 59.973 315.4 57.602 A 18.641 18.641 0 0 1 312.745 54.879 A 19.862 19.862 0 0 1 309.35 48.302 A 29.025 29.025 0 0 1 308.799 46.211 Q 307.961 42.518 307.532 37.008 A 141.076 141.076 0 0 1 307.2 30.902 A 224.762 224.762 0 0 0 307.07 27.661 Q 306.774 21.465 306.25 19.652 Q 305.6 17.402 303.4 17.402 Q 298.763 17.402 297.965 29.334 A 82.536 82.536 0 0 0 297.8 34.802 A 70.243 70.243 0 0 0 298.083 41.24 Q 298.661 47.521 300.425 52.532 A 27.154 27.154 0 0 0 313.1 68.002 A 35.594 35.594 0 0 0 313.556 68.226 Q 315.65 69.236 317.05 69.552 A 9.429 9.429 0 0 0 317.874 69.695 Q 319.431 69.902 322.2 69.902 A 32.931 32.931 0 0 0 325.139 69.778 Q 328.718 69.456 331.1 68.302 A 23.243 23.243 0 0 0 341.43 58.077 A 33.886 33.886 0 0 0 344.4 49.902 A 28.797 28.797 0 0 0 344.703 48.403 Q 345.3 45 345.3 40.602 Q 345.3 33.202 343.8 26.002 Q 342.722 20.827 341.23 18.131 A 8.293 8.293 0 0 0 340 16.402 A 6.534 6.534 0 0 0 339.95 16.352 A 5.181 5.181 0 0 0 336.2 14.802 A 4.153 4.153 0 0 0 335.152 14.938 Z M 119.364 16.01 A 3.228 3.228 0 0 0 118.6 16.702 Q 117.6 17.702 117.6 19.102 A 1.267 1.267 0 0 0 117.601 19.152 Q 117.648 20.324 119.812 24.182 A 95.023 95.023 0 0 0 120.95 26.152 Q 124.3 31.802 128.9 38.202 Q 133.45 44.502 134.019 45.519 A 0.591 0.591 0 0 1 134.1 45.702 Q 134.1 46.314 130.042 51.98 A 329.904 329.904 0 0 1 128.8 53.702 Q 121.77 63.208 120.356 66.779 A 4.165 4.165 0 0 0 120 68.202 A 3.978 3.978 0 0 0 120.115 69.202 Q 120.558 70.902 122.7 70.902 A 5.288 5.288 0 0 0 123.813 70.781 Q 125.479 70.424 127.2 69.002 Q 128.763 67.83 132.156 63.667 A 158.774 158.774 0 0 0 134.2 61.102 A 420.335 420.335 0 0 1 135.577 59.34 Q 139.205 54.727 139.8 54.302 A 0.241 0.241 0 0 1 139.866 54.256 Q 139.943 54.219 140.07 54.207 A 1.412 1.412 0 0 1 140.2 54.202 Q 140.988 54.202 145.297 59.025 A 172.26 172.26 0 0 1 146.6 60.502 A 353.019 353.019 0 0 0 147.379 61.341 Q 151.806 66.094 153.77 67.824 A 11.51 11.51 0 0 0 154.6 68.502 A 10.069 10.069 0 0 0 154.991 68.729 Q 156.575 69.602 158 69.602 Q 159.9 69.602 160.7 68.202 A 7.324 7.324 0 0 0 160.749 68.119 Q 161.096 67.524 161.224 67.037 A 2.102 2.102 0 0 0 161.3 66.502 Q 161.3 64.714 155.953 58.24 A 163.054 163.054 0 0 0 153.2 55.002 Q 146.3 47.102 146.1 45.902 A 1.074 1.074 0 0 1 146.102 45.839 Q 146.181 44.479 149.6 39.302 A 202.99 202.99 0 0 0 152.553 34.47 Q 158.923 23.686 159.095 19.623 A 5.213 5.213 0 0 0 159.1 19.402 Q 159.1 16.802 156.3 16.802 A 1.8 1.8 0 0 0 155.956 16.836 Q 153.322 17.348 147.837 25.425 A 133.235 133.235 0 0 0 145 29.802 A 253.879 253.879 0 0 1 143.891 31.617 Q 140.835 36.573 140.013 37.283 A 0.393 0.393 0 0 1 139.8 37.402 A 0.303 0.303 0 0 1 139.718 37.389 Q 138.198 36.956 128 21.902 Q 123.8 15.602 120.8 15.602 A 2.624 2.624 0 0 0 119.364 16.01 Z M 199.581 14.864 A 19.653 19.653 0 0 0 194.8 15.802 A 24.962 24.962 0 0 0 186.904 20.409 A 30.896 30.896 0 0 0 181.3 26.852 Q 175.9 35.002 175.9 44.502 A 30.712 30.712 0 0 0 175.917 45.515 A 23.304 23.304 0 0 0 183.45 62.452 A 25.227 25.227 0 0 0 193.533 68.247 A 31.362 31.362 0 0 0 202.6 69.502 Q 211 69.502 217.2 65.102 A 23.187 23.187 0 0 0 217.723 64.72 Q 219.512 63.373 220.738 61.89 A 10.879 10.879 0 0 0 223.4 54.802 Q 223.4 53.111 222.94 52.193 A 1.821 1.821 0 0 0 221.2 51.102 A 2.612 2.612 0 0 0 220.466 51.213 Q 219.535 51.485 218.43 52.423 A 13.721 13.721 0 0 0 217.4 53.402 Q 215.1 55.802 212.2 57.502 A 17.976 17.976 0 0 1 211.128 58.099 Q 210.474 58.432 209.882 58.655 A 7.621 7.621 0 0 1 208.7 59.002 Q 207.552 59.231 204.82 59.285 A 92.833 92.833 0 0 1 203 59.302 Q 199.454 59.302 197.092 58.915 A 14.552 14.552 0 0 1 195.25 58.502 A 9.825 9.825 0 0 1 194.963 58.41 Q 193.579 57.946 192.236 57.042 A 15.989 15.989 0 0 1 190.1 55.302 Q 189.116 54.458 188.823 53.812 A 1.244 1.244 0 0 1 188.7 53.302 A 0.782 0.782 0 0 1 188.801 52.925 Q 189.132 52.315 190.548 51.743 A 13.965 13.965 0 0 1 191.5 51.402 A 25.878 25.878 0 0 0 192.501 51.094 Q 197.63 49.401 203.05 45.302 A 54.9 54.9 0 0 0 203.789 44.733 Q 206.336 42.738 208.348 40.665 A 31.948 31.948 0 0 0 212.2 35.902 A 15.801 15.801 0 0 0 214.365 30.83 A 20.782 20.782 0 0 0 214.9 26.002 Q 214.9 25.152 214.815 24.415 A 9.454 9.454 0 0 0 214.6 23.202 Q 214.1 21.302 212.1 19.152 A 15.914 15.914 0 0 0 210.312 17.491 A 11.751 11.751 0 0 0 207.9 16.002 Q 206.257 15.213 203.923 14.943 A 22.854 22.854 0 0 0 201.3 14.802 A 23.263 23.263 0 0 0 199.581 14.864 Z M 414.081 14.864 A 19.653 19.653 0 0 0 409.3 15.802 A 24.962 24.962 0 0 0 401.404 20.409 A 30.896 30.896 0 0 0 395.8 26.852 Q 390.4 35.002 390.4 44.502 A 30.712 30.712 0 0 0 390.417 45.515 A 23.304 23.304 0 0 0 397.95 62.452 A 25.227 25.227 0 0 0 408.033 68.247 A 31.362 31.362 0 0 0 417.1 69.502 Q 425.5 69.502 431.7 65.102 A 23.187 23.187 0 0 0 432.223 64.72 Q 434.012 63.373 435.238 61.89 A 10.879 10.879 0 0 0 437.9 54.802 Q 437.9 53.111 437.44 52.193 A 1.821 1.821 0 0 0 435.7 51.102 A 2.612 2.612 0 0 0 434.966 51.213 Q 434.035 51.485 432.93 52.423 A 13.721 13.721 0 0 0 431.9 53.402 Q 429.6 55.802 426.7 57.502 A 17.976 17.976 0 0 1 425.628 58.099 Q 424.974 58.432 424.382 58.655 A 7.621 7.621 0 0 1 423.2 59.002 Q 422.052 59.231 419.32 59.285 A 92.833 92.833 0 0 1 417.5 59.302 Q 413.954 59.302 411.592 58.915 A 14.552 14.552 0 0 1 409.75 58.502 A 9.825 9.825 0 0 1 409.463 58.41 Q 408.079 57.946 406.736 57.042 A 15.989 15.989 0 0 1 404.6 55.302 Q 403.616 54.458 403.323 53.812 A 1.244 1.244 0 0 1 403.2 53.302 A 0.782 0.782 0 0 1 403.301 52.925 Q 403.632 52.315 405.048 51.743 A 13.965 13.965 0 0 1 406 51.402 A 25.878 25.878 0 0 0 407.001 51.094 Q 412.13 49.401 417.55 45.302 A 54.9 54.9 0 0 0 418.289 44.733 Q 420.836 42.738 422.848 40.665 A 31.948 31.948 0 0 0 426.7 35.902 A 15.801 15.801 0 0 0 428.865 30.83 A 20.782 20.782 0 0 0 429.4 26.002 Q 429.4 25.152 429.315 24.415 A 9.454 9.454 0 0 0 429.1 23.202 Q 428.6 21.302 426.6 19.152 A 15.914 15.914 0 0 0 424.812 17.491 A 11.751 11.751 0 0 0 422.4 16.002 Q 420.757 15.213 418.423 14.943 A 22.854 22.854 0 0 0 415.8 14.802 A 23.263 23.263 0 0 0 414.081 14.864 Z M 354.5 14.002 L 356.1 15.302 L 356.5 37.202 A 904.289 904.289 0 0 0 356.608 42.35 Q 357.013 59.227 357.8 60.102 A 0.938 0.938 0 0 0 358.216 60.423 Q 359.252 60.902 362.5 60.902 Q 363.066 60.902 370.043 60.724 A 7284.216 7284.216 0 0 0 370.9 60.702 Q 372.688 60.633 374.924 60.541 A 2253.851 2253.851 0 0 0 377.05 60.452 Q 379.768 60.337 381.519 60.251 A 262.518 262.518 0 0 0 382.5 60.202 A 272.95 272.95 0 0 1 383.16 60.168 Q 384.475 60.102 384.8 60.102 Q 385.836 60.102 386.872 60.991 A 6.506 6.506 0 0 1 387.4 61.502 A 6.139 6.139 0 0 1 388.106 62.41 Q 388.7 63.356 388.7 64.302 A 2.259 2.259 0 0 1 388.543 65.079 Q 388.169 66.092 386.9 67.502 A 9.389 9.389 0 0 1 386.092 68.332 Q 385.651 68.729 385.215 68.997 A 3.971 3.971 0 0 1 384.35 69.402 Q 383.1 69.802 378.8 70.202 A 136.835 136.835 0 0 1 373.292 70.567 Q 368.363 70.802 362.3 70.802 L 352 70.802 L 350.2 68.902 Q 349 67.602 348.55 66.152 Q 348.182 64.967 347.848 61.547 A 116.102 116.102 0 0 1 347.7 59.902 A 56.573 56.573 0 0 1 347.523 57.576 Q 347.163 51.477 347 36.202 L 347 32.802 A 289.896 289.896 0 0 1 347.035 28.1 Q 347.145 21.345 347.6 18.352 Q 348.02 15.588 348.88 14.318 A 2.674 2.674 0 0 1 349.7 13.502 A 3.973 3.973 0 0 1 350.75 12.969 A 3.376 3.376 0 0 1 351.8 12.802 A 2.931 2.931 0 0 1 352.783 12.985 Q 353.583 13.269 354.493 13.996 A 9.798 9.798 0 0 1 354.5 14.002 Z M 80.7 14.002 Q 83.4 12.602 86.3 12.602 Q 86.668 12.602 87.461 12.644 A 68.516 68.516 0 0 1 87.6 12.652 Q 88.478 12.7 89.071 12.702 A 14.668 14.668 0 0 0 89.1 12.702 A 28.29 28.29 0 0 1 93.783 13.252 A 21.243 21.243 0 0 1 98.4 14.752 Q 101.687 16.272 105.177 19.447 A 44.64 44.64 0 0 1 106.7 20.902 A 32.318 32.318 0 0 1 113.232 30.164 A 28.571 28.571 0 0 1 115.8 42.202 A 26.149 26.149 0 0 1 107.715 61.525 A 32.705 32.705 0 0 1 106.9 62.302 A 40.99 40.99 0 0 1 104.301 64.471 Q 103.017 65.45 101.83 66.157 A 16.341 16.341 0 0 1 99.55 67.302 A 16.229 16.229 0 0 1 96.923 68.081 Q 94.323 68.638 90.8 68.702 Q 86.8 68.702 85.25 68.402 A 9.593 9.593 0 0 1 84.279 68.154 Q 83.233 67.834 81.808 67.211 A 43.957 43.957 0 0 1 80.9 66.802 Q 73.5 63.302 69.55 56.802 Q 65.6 50.302 65.6 41.702 Q 65.6 32.902 69.85 25.102 A 30.981 30.981 0 0 1 73.854 19.321 A 22.712 22.712 0 0 1 80.7 14.002 Z M 165.882 14.269 A 3.991 3.991 0 0 0 164.9 15.002 A 3.115 3.115 0 0 0 164.586 15.372 Q 163 17.55 163 24.402 Q 163 25.62 163.132 30.47 A 1816.982 1816.982 0 0 0 163.2 32.902 A 708.372 708.372 0 0 0 163.494 41.076 Q 164.412 62.822 166.2 65.802 A 5.328 5.328 0 0 0 166.464 66.201 Q 167.03 66.977 167.784 67.377 A 3.816 3.816 0 0 0 169.6 67.802 A 3.893 3.893 0 0 0 171.923 67.058 A 5.249 5.249 0 0 0 173 66.002 A 4.695 4.695 0 0 0 173.602 65.016 Q 174.2 63.708 174.2 61.802 A 4.619 4.619 0 0 0 174.199 61.733 Q 174.189 61.043 174 56.702 Q 172.425 29.227 171.998 22.577 A 217.711 217.711 0 0 0 171.9 21.102 Q 171.677 17.985 171.069 16.52 A 3.184 3.184 0 0 0 170.6 15.702 A 5.013 5.013 0 0 0 170.185 15.16 A 3.564 3.564 0 0 0 167.4 13.902 A 3.252 3.252 0 0 0 165.882 14.269 Z M 90.72 20.562 A 8.458 8.458 0 0 0 88.7 20.302 Q 85.308 20.302 81.977 23.289 A 21.073 21.073 0 0 0 80.2 25.102 A 21.852 21.852 0 0 0 77.62 28.813 Q 76.558 30.714 75.7 33.002 A 32.202 32.202 0 0 0 74.535 36.753 Q 73.9 39.386 73.9 41.702 A 14.65 14.65 0 0 0 74.158 44.351 Q 74.502 46.213 75.3 48.352 A 25.156 25.156 0 0 0 76.537 51.159 Q 77.269 52.567 78.119 53.687 A 13.946 13.946 0 0 0 78.7 54.402 A 18.992 18.992 0 0 0 82.719 57.968 A 14.212 14.212 0 0 0 90.6 60.302 A 14.796 14.796 0 0 0 99.891 57.002 A 20.806 20.806 0 0 0 102.1 55.002 A 16.966 16.966 0 0 0 107.199 42.732 A 21.318 21.318 0 0 0 107.2 42.502 A 20.639 20.639 0 0 0 105.14 33.609 A 25.521 25.521 0 0 0 104.05 31.552 A 26.007 26.007 0 0 0 97.511 24.199 A 31.612 31.612 0 0 0 95.1 22.502 Q 92.738 21.058 90.72 20.562 Z M 261 9.302 L 258.4 10.002 L 258.5 13.302 Q 259.024 22.214 259.09 23.873 A 9.912 9.912 0 0 1 259.1 24.202 L 259.1 24.402 Q 259.469 30.852 260.177 32.038 A 0.841 0.841 0 0 0 260.3 32.202 A 1.004 1.004 0 0 0 260.848 32.481 A 1.432 1.432 0 0 0 261.1 32.502 Q 262.2 32.502 266.7 29.602 A 125.635 125.635 0 0 0 270.464 27.059 Q 276.408 22.872 278.491 20.113 A 7.23 7.23 0 0 0 279.3 18.802 Q 279.9 17.602 279.9 16.802 Q 279.9 16.302 279.4 15.002 A 5.413 5.413 0 0 0 278.102 13.095 Q 276.683 11.699 274 10.602 Q 269.6 8.802 265 8.802 Q 263 8.802 261 9.302 Z M 186.4 43.402 L 186.5 43.402 A 0.451 0.451 0 0 0 186.561 43.453 Q 186.63 43.502 186.7 43.502 Q 187.669 43.502 190.594 42.198 A 66.556 66.556 0 0 0 192.1 41.502 Q 197.3 38.902 201.35 34.502 A 28.601 28.601 0 0 0 203.074 32.458 Q 204.7 30.32 205.189 28.602 A 5.117 5.117 0 0 0 205.4 27.202 A 2.503 2.503 0 0 0 204.976 25.812 A 3.095 3.095 0 0 0 204.9 25.702 A 1.88 1.88 0 0 0 204.222 25.196 Q 203.18 24.702 201 24.702 A 11.796 11.796 0 0 0 192.621 28.238 Q 190.012 30.737 187.9 35.002 Q 186.38 37.889 186.015 40.372 A 10.514 10.514 0 0 0 185.9 41.902 Q 185.9 42.759 186.155 43.157 A 0.751 0.751 0 0 0 186.4 43.402 Z M 400.9 43.402 L 401 43.402 A 0.451 0.451 0 0 0 401.061 43.453 Q 401.13 43.502 401.2 43.502 Q 402.169 43.502 405.094 42.198 A 66.556 66.556 0 0 0 406.6 41.502 Q 411.8 38.902 415.85 34.502 A 28.601 28.601 0 0 0 417.574 32.458 Q 419.2 30.32 419.689 28.602 A 5.117 5.117 0 0 0 419.9 27.202 A 2.503 2.503 0 0 0 419.476 25.812 A 3.095 3.095 0 0 0 419.4 25.702 A 1.88 1.88 0 0 0 418.722 25.196 Q 417.68 24.702 415.5 24.702 A 11.796 11.796 0 0 0 407.121 28.238 Q 404.512 30.737 402.4 35.002 Q 400.88 37.889 400.515 40.372 A 10.514 10.514 0 0 0 400.4 41.902 Q 400.4 42.759 400.655 43.157 A 0.751 0.751 0 0 0 400.9 43.402 Z" vector-effect="non-scaling-stroke"/></g></svg>